<?xml version="1.0" standalone="no"?>
<!DOCTYPE svg PUBLIC "-//W3C//DTD SVG 20010904//EN"
 "http://www.w3.org/TR/2001/REC-SVG-20010904/DTD/svg10.dtd">
<svg version="1.0" xmlns="http://www.w3.org/2000/svg"
 width="512.000000pt" height="512.000000pt" viewBox="0 0 512.000000 512.000000"
 preserveAspectRatio="xMidYMid meet">
<metadata>
Created by potrace 1.14, written by Peter Selinger 2001-2017
</metadata>
<g transform="translate(0.000000,512.000000) scale(0.100000,-0.100000)"
fill="#000000" stroke="none">
<path d="M0 2560 l0 -2560 2560 0 2560 0 0 2560 0 2560 -2560 0 -2560 0 0
-2560z m1353 1306 c65 -31 140 -108 170 -174 31 -67 31 -197 0 -264 -30 -66
-105 -143 -172 -175 -48 -24 -68 -28 -141 -28 -73 0 -93 4 -141 28 -67 32
-142 109 -172 175 -31 66 -31 197 0 264 25 54 90 128 140 159 91 57 219 63
316 15z m2857 -13 c16 -9 33 -27 39 -40 7 -15 11 -114 11 -269 0 -267 -4 -289
-57 -313 -17 -8 -357 -11 -1134 -11 -1019 0 -1113 1 -1139 17 -16 9 -33 27
-39 40 -7 15 -11 114 -11 269 0 264 4 288 54 313 14 6 407 10 1134 10 1022 1
1116 0 1142 -16z m-2857 -987 c65 -31 140 -108 170 -174 31 -67 31 -197 0
-264 -30 -66 -105 -143 -172 -175 -48 -24 -68 -28 -141 -28 -73 0 -93 4 -141
28 -67 32 -142 109 -172 175 -31 66 -31 197 0 264 25 54 90 128 140 159 91 57
219 63 316 15z m2857 -13 c16 -9 33 -27 39 -40 7 -15 11 -114 11 -269 0 -267
-4 -289 -57 -313 -17 -8 -357 -11 -1134 -11 -1019 0 -1113 1 -1139 17 -16 9
-33 27 -39 40 -7 15 -11 114 -11 269 0 264 4 288 54 313 14 6 407 10 1134 10
1022 1 1116 0 1142 -16z m-2857 -987 c65 -31 140 -108 170 -174 31 -67 31
-197 0 -264 -30 -66 -105 -143 -172 -175 -48 -24 -68 -28 -141 -28 -73 0 -93
4 -141 28 -67 32 -142 109 -172 175 -31 66 -31 197 0 264 25 54 90 128 140
159 91 57 219 63 316 15z m2857 -13 c16 -9 33 -27 39 -40 7 -15 11 -114 11
-269 0 -267 -4 -289 -57 -313 -17 -8 -357 -11 -1134 -11 -1019 0 -1113 1
-1139 17 -16 9 -33 27 -39 40 -7 15 -11 114 -11 269 0 264 4 288 54 313 14 6
407 10 1134 10 1022 1 1116 0 1142 -16z"/>
</g>
</svg>
