<svg width="124" height="33" viewBox="0 0 124 33" fill="none" xmlns="http://www.w3.org/2000/svg">
<path d="M5.96046e-08 32V2.88H8.28C11.1867 2.88 13.6533 3.32 15.68 4.2C17.7067 5.05333 19.3467 6.21333 20.6 7.68C21.8533 9.12 22.76 10.7333 23.32 12.52C23.9067 14.28 24.2 16.0533 24.2 17.84C24.2 20.0267 23.8133 21.9867 23.04 23.72C22.2667 25.4533 21.2133 26.9467 19.88 28.2C18.5467 29.4267 17 30.3733 15.24 31.04C13.5067 31.68 11.6533 32 9.68 32H5.96046e-08ZM4.68 27.52H8.84C10.3867 27.52 11.8 27.3067 13.08 26.88C14.36 26.4267 15.4667 25.7867 16.4 24.96C17.36 24.1067 18.0933 23.0533 18.6 21.8C19.1333 20.5467 19.4 19.12 19.4 17.52C19.4 15.7067 19.0933 14.16 18.48 12.88C17.8933 11.5733 17.1067 10.52 16.12 9.72C15.16 8.89333 14.1067 8.29333 12.96 7.92C11.8133 7.54666 10.68 7.36 9.56 7.36H4.68V27.52ZM48.0297 29.72C47.6297 30.0133 47.003 30.3733 46.1497 30.8C45.2964 31.2267 44.283 31.6 43.1097 31.92C41.963 32.2133 40.683 32.3467 39.2697 32.32C37.003 32.2933 34.963 31.8933 33.1497 31.12C31.3364 30.32 29.803 29.2533 28.5497 27.92C27.2964 26.56 26.323 25.0133 25.6297 23.28C24.963 21.52 24.6297 19.6533 24.6297 17.68C24.6297 15.4667 24.9764 13.44 25.6697 11.6C26.363 9.76 27.3497 8.17333 28.6297 6.84C29.9097 5.48 31.4297 4.42667 33.1897 3.68C34.9497 2.93333 36.8697 2.56 38.9497 2.56C40.7897 2.56 42.4297 2.81333 43.8697 3.32C45.3364 3.8 46.563 4.34666 47.5497 4.96L45.7097 9.36C44.963 8.82667 44.0297 8.30667 42.9097 7.8C41.7897 7.29333 40.523 7.04 39.1097 7.04C37.8297 7.04 36.603 7.30667 35.4297 7.84C34.2564 8.34667 33.2297 9.08 32.3497 10.04C31.4697 10.9733 30.763 12.0667 30.2297 13.32C29.723 14.5733 29.4697 15.9333 29.4697 17.4C29.4697 18.92 29.6964 20.32 30.1497 21.6C30.6297 22.8533 31.2964 23.9467 32.1497 24.88C33.0297 25.8133 34.0697 26.5467 35.2697 27.08C36.4964 27.5867 37.8564 27.84 39.3497 27.84C40.8697 27.84 42.1897 27.6133 43.3097 27.16C44.4564 26.68 45.3764 26.1467 46.0697 25.56L48.0297 29.72ZM58.4422 2.88C60.0422 2.88 61.5089 3.09333 62.8422 3.52C64.1755 3.92 65.3089 4.52 66.2422 5.32C67.1755 6.12 67.8955 7.10667 68.4022 8.28C68.9355 9.42667 69.2022 10.7467 69.2022 12.24C69.2022 13.3867 69.0289 14.5333 68.6822 15.68C68.3355 16.8267 67.7622 17.8667 66.9622 18.8C66.1889 19.7333 65.1622 20.48 63.8822 21.04C62.6022 21.6 61.0155 21.88 59.1222 21.88H54.9222V32H50.2422V2.88H58.4422ZM59.0822 17.4C60.1222 17.4 60.9889 17.24 61.6822 16.92C62.3755 16.5733 62.9089 16.1467 63.2822 15.64C63.6822 15.1333 63.9622 14.6 64.1222 14.04C64.3089 13.4533 64.4022 12.9067 64.4022 12.4C64.4022 11.92 64.3222 11.4 64.1622 10.84C64.0022 10.2533 63.7355 9.70667 63.3622 9.2C62.9889 8.66667 62.4555 8.22667 61.7622 7.88C61.0955 7.53333 60.2555 7.36 59.2422 7.36H54.9222V17.4H59.0822ZM64.1222 20.16L71.5622 32H66.1622L58.5622 20.28L64.1222 20.16ZM79.2391 32.44C77.6391 32.44 76.1857 32.1067 74.8791 31.44C73.5991 30.7733 72.5857 29.7867 71.8391 28.48C71.0924 27.1467 70.7191 25.5067 70.7191 23.56C70.7191 21.64 71.1057 20 71.8791 18.64C72.6791 17.2533 73.7191 16.1867 74.9991 15.44C76.3057 14.6933 77.7191 14.32 79.2391 14.32C80.8657 14.32 82.1724 14.64 83.1591 15.28C84.1724 15.92 84.9591 16.68 85.5191 17.56L85.2791 18.2L85.7191 15.08H89.8391V32H85.3591V27.88L85.7991 28.96C85.6924 29.12 85.4791 29.3867 85.1591 29.76C84.8391 30.1067 84.3991 30.4933 83.8391 30.92C83.2791 31.3467 82.6124 31.7067 81.8391 32C81.0924 32.2933 80.2257 32.44 79.2391 32.44ZM80.4791 28.76C81.2791 28.76 81.9991 28.6133 82.6391 28.32C83.3057 28.0267 83.8657 27.6133 84.3191 27.08C84.7991 26.5467 85.1457 25.9067 85.3591 25.16V21.48C85.1457 20.7867 84.7991 20.1867 84.3191 19.68C83.8391 19.1467 83.2524 18.7333 82.5591 18.44C81.8924 18.1467 81.1457 18 80.3191 18C79.4124 18 78.5724 18.2267 77.7991 18.68C77.0257 19.1333 76.3991 19.76 75.9191 20.56C75.4657 21.36 75.2391 22.28 75.2391 23.32C75.2391 24.3333 75.4791 25.2533 75.9591 26.08C76.4391 26.9067 77.0791 27.56 77.8791 28.04C78.6791 28.52 79.5457 28.76 80.4791 28.76ZM106.025 30.44C105.279 31.0533 104.359 31.5467 103.265 31.92C102.199 32.2667 101.119 32.44 100.025 32.44C98.1586 32.44 96.5186 32.08 95.1053 31.36C93.692 30.6133 92.5853 29.5867 91.7853 28.28C91.012 26.9467 90.6253 25.36 90.6253 23.52C90.6253 21.68 91.0386 20.0933 91.8653 18.76C92.7186 17.4267 93.8253 16.4133 95.1853 15.72C96.572 15 98.0386 14.64 99.5853 14.64C100.999 14.64 102.252 14.84 103.345 15.24C104.439 15.6133 105.385 16.1333 106.185 16.8L103.945 19.72C103.519 19.3733 102.959 19.0533 102.265 18.76C101.599 18.44 100.839 18.28 99.9853 18.28C99.0786 18.28 98.252 18.5067 97.5053 18.96C96.7853 19.4133 96.1986 20.04 95.7453 20.84C95.3186 21.6133 95.1053 22.5067 95.1053 23.52C95.1053 24.48 95.332 25.36 95.7853 26.16C96.2386 26.96 96.8653 27.6 97.6653 28.08C98.4653 28.5333 99.3853 28.76 100.425 28.76C101.092 28.76 101.705 28.6667 102.265 28.48C102.852 28.2667 103.359 27.9867 103.785 27.64L106.025 30.44ZM106.619 32V0.799999H111.099V32H106.619ZM115.299 20.64L123.019 32H117.819L112.339 23.2L115.299 20.64ZM109.739 26.92L109.299 22.6L119.579 14.68L122.299 17.08L109.739 26.92Z" fill="white"/>
</svg>
